<svg width="100" height="33" viewBox="0 0 100 33" fill="none" xmlns="http://www.w3.org/2000/svg">
<path d="M5.65696 29H0.713778L8.24574 7.18182H14.1903L21.7116 29H16.7685L11.3033 12.1676H11.1328L5.65696 29ZM5.34801 20.424H17.0241V24.0249H5.34801V20.424ZM24.2525 29V12.6364H28.6523V15.4915H28.8228C29.1211 14.4759 29.6218 13.7088 30.3249 13.1903C31.0281 12.6648 31.8377 12.402 32.7539 12.402C32.9812 12.402 33.2262 12.4162 33.489 12.4446C33.7518 12.473 33.9826 12.5121 34.1815 12.5618V16.5888C33.9684 16.5249 33.6737 16.468 33.2972 16.4183C32.9208 16.3686 32.5763 16.3438 32.2638 16.3438C31.5962 16.3438 30.9996 16.4893 30.4741 16.7805C29.9556 17.0646 29.5437 17.4624 29.2383 17.9737C28.94 18.4851 28.7908 19.0746 28.7908 19.7422V29H24.2525ZM50.1429 17.3026L45.9881 17.5582C45.9171 17.2031 45.7644 16.8835 45.53 16.5994C45.2956 16.3082 44.9867 16.0774 44.6032 15.907C44.2267 15.7294 43.7757 15.6406 43.2502 15.6406C42.5471 15.6406 41.954 15.7898 41.4711 16.0881C40.9881 16.3793 40.7466 16.7699 40.7466 17.2599C40.7466 17.6506 40.9029 17.9808 41.2154 18.2507C41.5279 18.5206 42.0641 18.7372 42.824 18.9006L45.7857 19.4972C47.3766 19.8239 48.5627 20.3494 49.3439 21.0739C50.1252 21.7983 50.5158 22.75 50.5158 23.929C50.5158 25.0014 50.1998 25.9425 49.5676 26.7521C48.9426 27.5618 48.0833 28.1939 46.9895 28.6484C45.9029 29.0959 44.6493 29.3196 43.2289 29.3196C41.0627 29.3196 39.3368 28.8686 38.0513 27.9666C36.7729 27.0575 36.0236 25.8217 35.8034 24.2592L40.2672 24.0249C40.4022 24.6854 40.7289 25.1896 41.2473 25.5376C41.7658 25.8786 42.4299 26.049 43.2395 26.049C44.035 26.049 44.6742 25.8963 45.1571 25.5909C45.6472 25.2784 45.8958 24.8771 45.9029 24.3871C45.8958 23.9751 45.7218 23.6378 45.3809 23.375C45.04 23.1051 44.5144 22.8991 43.8042 22.7571L40.9703 22.1925C39.3723 21.8729 38.1827 21.3189 37.4015 20.5305C36.6273 19.7422 36.2402 18.7372 36.2402 17.5156C36.2402 16.4645 36.5243 15.5589 37.0925 14.799C37.6678 14.0391 38.4739 13.4531 39.5108 13.0412C40.5549 12.6293 41.7765 12.4233 43.1756 12.4233C45.2424 12.4233 46.8688 12.8601 48.0549 13.7337C49.248 14.6072 49.9441 15.7969 50.1429 17.3026ZM53.3736 29V12.6364H57.9119V29H53.3736ZM55.6534 10.527C54.9787 10.527 54.3999 10.3033 53.9169 9.85582C53.4411 9.40128 53.2031 8.85795 53.2031 8.22585C53.2031 7.60085 53.4411 7.06463 53.9169 6.61719C54.3999 6.16264 54.9787 5.93537 55.6534 5.93537C56.3281 5.93537 56.9034 6.16264 57.3793 6.61719C57.8622 7.06463 58.1037 7.60085 58.1037 8.22585C58.1037 8.85795 57.8622 9.40128 57.3793 9.85582C56.9034 10.3033 56.3281 10.527 55.6534 10.527ZM66.0858 19.5398V29H61.5474V12.6364H65.8727V15.5234H66.0645C66.4267 14.5717 67.0339 13.8189 67.8862 13.2649C68.7385 12.7038 69.7718 12.4233 70.9863 12.4233C72.1227 12.4233 73.1135 12.6719 73.9586 13.169C74.8038 13.6662 75.4608 14.3764 75.9295 15.2997C76.3983 16.2159 76.6326 17.3097 76.6326 18.581V29H72.0943V19.3906C72.1014 18.3892 71.8457 17.608 71.3272 17.0469C70.8088 16.4787 70.095 16.1946 69.1859 16.1946C68.5751 16.1946 68.0353 16.326 67.5666 16.5888C67.1049 16.8516 66.7427 17.2351 66.4799 17.7393C66.2243 18.2365 66.0929 18.8366 66.0858 19.5398ZM87.603 29.3196C85.9482 29.3196 84.517 28.968 83.3097 28.2649C82.1094 27.5547 81.1825 26.5675 80.5291 25.3033C79.8757 24.032 79.549 22.5582 79.549 20.8821C79.549 19.1918 79.8757 17.7145 80.5291 16.4503C81.1825 15.179 82.1094 14.1918 83.3097 13.4886C84.517 12.7784 85.9482 12.4233 87.603 12.4233C89.2578 12.4233 90.6854 12.7784 91.8857 13.4886C93.093 14.1918 94.0234 15.179 94.6768 16.4503C95.3303 17.7145 95.657 19.1918 95.657 20.8821C95.657 22.5582 95.3303 24.032 94.6768 25.3033C94.0234 26.5675 93.093 27.5547 91.8857 28.2649C90.6854 28.968 89.2578 29.3196 87.603 29.3196ZM87.6243 25.804C88.3771 25.804 89.0057 25.5909 89.5099 25.1648C90.0142 24.7315 90.3942 24.142 90.6499 23.3963C90.9126 22.6506 91.044 21.8018 91.044 20.8501C91.044 19.8984 90.9126 19.0497 90.6499 18.304C90.3942 17.5582 90.0142 16.9687 89.5099 16.5355C89.0057 16.1023 88.3771 15.8857 87.6243 15.8857C86.8643 15.8857 86.2251 16.1023 85.7067 16.5355C85.1953 16.9687 84.8082 17.5582 84.5455 18.304C84.2898 19.0497 84.1619 19.8984 84.1619 20.8501C84.1619 21.8018 84.2898 22.6506 84.5455 23.3963C84.8082 24.142 85.1953 24.7315 85.7067 25.1648C86.2251 25.5909 86.8643 25.804 87.6243 25.804Z" fill="url(#paint0_linear_111_819)"/>
<defs>
<linearGradient id="paint0_linear_111_819" x1="2.59135e-06" y1="33" x2="31.8419" y2="-22.9293" gradientUnits="userSpaceOnUse">
<stop stop-color="#FF4D00"/>
<stop offset="1" stop-color="white"/>
</linearGradient>
</defs>
</svg>
