<svg width="108" height="24" viewBox="0 0 108 24" fill="none" xmlns="http://www.w3.org/2000/svg">
<path d="M5.65696 23H0.713778L8.24574 1.18182H14.1903L21.7116 23H16.7685L11.3033 6.16761H11.1328L5.65696 23ZM5.34801 14.424H17.0241V18.0249H5.34801V14.424ZM42.3377 1.18182H48.0266L54.0352 15.8409H54.2908L60.2994 1.18182H65.9883V23H61.5139V8.79901H61.3327L55.6864 22.8935H52.6396L46.9933 8.74574H46.8121V23H42.3377V1.18182ZM102.256 8.23438C102.107 7.71591 101.898 7.25781 101.628 6.86008C101.358 6.45526 101.028 6.11435 100.637 5.83736C100.253 5.55327 99.813 5.33665 99.3159 5.1875C98.8258 5.03835 98.2825 4.96378 97.6859 4.96378C96.5708 4.96378 95.5907 5.24077 94.7456 5.79474C93.9075 6.34872 93.2541 7.15483 92.7853 8.21307C92.3166 9.2642 92.0822 10.5497 92.0822 12.0696C92.0822 13.5895 92.313 14.8821 92.7747 15.9474C93.2363 17.0128 93.8897 17.826 94.7349 18.3871C95.5801 18.9411 96.5779 19.218 97.7285 19.218C98.7725 19.218 99.6639 19.0334 100.403 18.6641C101.148 18.2876 101.716 17.7585 102.107 17.0767C102.505 16.3949 102.704 15.5888 102.704 14.6584L103.641 14.7969H98.0162V11.3239H107.146V14.0724C107.146 15.9901 106.741 17.6378 105.932 19.0156C105.122 20.3864 104.007 21.4446 102.586 22.1903C101.166 22.929 99.5396 23.2983 97.7072 23.2983C95.6618 23.2983 93.8649 22.8473 92.3166 21.9453C90.7683 21.0362 89.5609 19.7472 88.6944 18.0781C87.835 16.402 87.4054 14.4134 87.4054 12.1122C87.4054 10.3437 87.661 8.76705 88.1724 7.3821C88.6909 5.99006 89.4153 4.81108 90.3457 3.84517C91.2761 2.87926 92.3592 2.14418 93.595 1.63991C94.8308 1.13565 96.1696 0.883522 97.6113 0.883522C98.8471 0.883522 99.9977 1.06463 101.063 1.42685C102.128 1.78196 103.073 2.28622 103.897 2.93963C104.728 3.59304 105.406 4.37074 105.932 5.27273C106.457 6.16761 106.795 7.15483 106.944 8.23438H102.256Z" fill="#EBEBEB"/>
</svg>
