<svg width="111" height="40" viewBox="0 0 111 40" fill="none" xmlns="http://www.w3.org/2000/svg">
<path d="M5.65696 23H0.713778L8.24574 1.18182H14.1903L21.7116 23H16.7685L11.3033 6.16761H11.1328L5.65696 23ZM5.34801 14.424H17.0241V18.0249H5.34801V14.424ZM43.8377 1.18182H49.5266L55.5352 15.8409H55.7908L61.7994 1.18182H67.4883V23H63.0139V8.79901H62.8327L57.1864 22.8935H54.1396L48.4933 8.74574H48.3121V23H43.8377V1.18182ZM105.256 8.23438C105.107 7.71591 104.898 7.25781 104.628 6.86008C104.358 6.45526 104.028 6.11435 103.637 5.83736C103.253 5.55327 102.813 5.33665 102.316 5.1875C101.826 5.03835 101.282 4.96378 100.686 4.96378C99.5708 4.96378 98.5907 5.24077 97.7456 5.79474C96.9075 6.34872 96.2541 7.15483 95.7853 8.21307C95.3166 9.2642 95.0822 10.5497 95.0822 12.0696C95.0822 13.5895 95.313 14.8821 95.7747 15.9474C96.2363 17.0128 96.8897 17.826 97.7349 18.3871C98.5801 18.9411 99.5779 19.218 100.729 19.218C101.773 19.218 102.664 19.0334 103.403 18.6641C104.148 18.2876 104.716 17.7585 105.107 17.0767C105.505 16.3949 105.704 15.5888 105.704 14.6584L106.641 14.7969H101.016V11.3239H110.146V14.0724C110.146 15.9901 109.741 17.6378 108.932 19.0156C108.122 20.3864 107.007 21.4446 105.586 22.1903C104.166 22.929 102.54 23.2983 100.707 23.2983C98.6618 23.2983 96.8649 22.8473 95.3166 21.9453C93.7683 21.0362 92.5609 19.7472 91.6944 18.0781C90.835 16.402 90.4054 14.4134 90.4054 12.1122C90.4054 10.3437 90.661 8.76705 91.1724 7.3821C91.6909 5.99006 92.4153 4.81108 93.3457 3.84517C94.2761 2.87926 95.3592 2.14418 96.595 1.63991C97.8308 1.13565 99.1696 0.883522 100.611 0.883522C101.847 0.883522 102.998 1.06463 104.063 1.42685C105.128 1.78196 106.073 2.28622 106.897 2.93963C107.728 3.59304 108.406 4.37074 108.932 5.27273C109.457 6.16761 109.795 7.15483 109.944 8.23438H105.256Z" fill="url(#paint0_linear_0_1)"/>
<path d="M1.88565 37H0.237926L2.74858 29.7273H4.73011L7.23722 37H5.58949L3.76776 31.3892H3.71094L1.88565 37ZM1.78267 34.1413H5.67472V35.3416H1.78267V34.1413ZM8.08416 37V31.5455H9.55078V32.4972H9.6076C9.70703 32.1586 9.87393 31.9029 10.1083 31.7301C10.3427 31.5549 10.6126 31.4673 10.918 31.4673C10.9937 31.4673 11.0754 31.4721 11.163 31.4815C11.2506 31.491 11.3275 31.504 11.3938 31.5206V32.8629C11.3228 32.8416 11.2246 32.8227 11.0991 32.8061C10.9736 32.7895 10.8588 32.7812 10.7546 32.7812C10.5321 32.7812 10.3332 32.8298 10.158 32.9268C9.9852 33.0215 9.84789 33.1541 9.74609 33.3246C9.64666 33.495 9.59695 33.6915 9.59695 33.9141V37H8.08416ZM14.3865 37.1065C13.8278 37.1065 13.3472 36.9882 12.9448 36.7514C12.5447 36.5123 12.2369 36.1809 12.0215 35.7571C11.8084 35.3333 11.7019 34.8456 11.7019 34.294C11.7019 33.7353 11.8096 33.2453 12.025 32.8239C12.2428 32.4001 12.5518 32.0698 12.9519 31.8331C13.352 31.594 13.8278 31.4744 14.3794 31.4744C14.8553 31.4744 15.272 31.5608 15.6294 31.7337C15.9869 31.9065 16.2698 32.1491 16.4782 32.4616C16.6865 32.7741 16.8013 33.1411 16.8226 33.5625H15.3951C15.3548 33.2902 15.2483 33.0713 15.0755 32.9055C14.905 32.7375 14.6813 32.6534 14.4043 32.6534C14.1699 32.6534 13.9651 32.7173 13.79 32.8452C13.6171 32.9706 13.4822 33.1541 13.3851 33.3956C13.2881 33.6371 13.2395 33.9295 13.2395 34.2727C13.2395 34.6207 13.2869 34.9167 13.3816 35.1605C13.4786 35.4044 13.6148 35.5902 13.79 35.718C13.9651 35.8459 14.1699 35.9098 14.4043 35.9098C14.5771 35.9098 14.7322 35.8743 14.8695 35.8033C15.0092 35.7322 15.124 35.6293 15.214 35.4943C15.3063 35.357 15.3667 35.1925 15.3951 35.0007H16.8226C16.7989 35.4174 16.6853 35.7843 16.4817 36.1016C16.2805 36.4164 16.0023 36.6626 15.6472 36.8402C15.2921 37.0178 14.8719 37.1065 14.3865 37.1065ZM19.304 33.8466V37H17.7912V29.7273H19.2614V32.5078H19.3253C19.4484 32.1858 19.6473 31.9337 19.9219 31.7514C20.1965 31.5668 20.541 31.4744 20.9553 31.4744C21.334 31.4744 21.6643 31.5573 21.946 31.723C22.2301 31.8864 22.4503 32.1219 22.6065 32.4297C22.7652 32.7351 22.8433 33.1009 22.8409 33.527V37H21.3281V33.7969C21.3305 33.4607 21.2453 33.1991 21.0724 33.0121C20.902 32.825 20.6629 32.7315 20.3551 32.7315C20.1491 32.7315 19.9669 32.7753 19.8082 32.8629C19.652 32.9505 19.5289 33.0784 19.4389 33.2464C19.3513 33.4122 19.3063 33.6122 19.304 33.8466ZM25.1074 37L23.623 31.5455H25.1536L25.9988 35.2102H26.0485L26.9292 31.5455H28.4313L29.3262 35.1889H29.3723L30.2033 31.5455H31.7303L30.2495 37H28.6479L27.7104 33.5696H27.6429L26.7054 37H25.1074ZM34.0927 37.103C33.7447 37.103 33.4345 37.0426 33.1623 36.9219C32.89 36.7988 32.6746 36.6177 32.516 36.3786C32.3597 36.1371 32.2816 35.8364 32.2816 35.4766C32.2816 35.1735 32.3372 34.919 32.4485 34.7131C32.5598 34.5071 32.7113 34.3414 32.9031 34.2159C33.0948 34.0904 33.3126 33.9957 33.5565 33.9318C33.8027 33.8679 34.0607 33.8229 34.3306 33.7969C34.6478 33.7637 34.9035 33.733 35.0977 33.7045C35.2918 33.6738 35.4326 33.6288 35.5202 33.5696C35.6078 33.5104 35.6516 33.4228 35.6516 33.3068V33.2855C35.6516 33.0606 35.5806 32.8866 35.4386 32.7635C35.2989 32.6404 35.1 32.5788 34.842 32.5788C34.5697 32.5788 34.3531 32.6392 34.1921 32.7599C34.0311 32.8783 33.9246 33.0275 33.8725 33.2074L32.4734 33.0938C32.5444 32.7623 32.6841 32.4759 32.8924 32.2344C33.1007 31.9905 33.3694 31.8035 33.6985 31.6733C34.0299 31.5407 34.4135 31.4744 34.8491 31.4744C35.1521 31.4744 35.4421 31.5099 35.7191 31.581C35.9985 31.652 36.2459 31.7621 36.4613 31.9112C36.6791 32.0604 36.8507 32.2521 36.9762 32.4865C37.1017 32.7185 37.1644 32.9967 37.1644 33.321V37H35.7298V36.2436H35.6871C35.5996 36.4141 35.4824 36.5644 35.3356 36.6946C35.1888 36.8224 35.0124 36.9231 34.8065 36.9964C34.6005 37.0675 34.3626 37.103 34.0927 37.103ZM34.5259 36.0589C34.7485 36.0589 34.945 36.0152 35.1154 35.9276C35.2859 35.8376 35.4196 35.7169 35.5167 35.5653C35.6138 35.4138 35.6623 35.2422 35.6623 35.0504V34.4716C35.6149 34.5024 35.5498 34.5308 35.467 34.5568C35.3865 34.5805 35.2953 34.603 35.1935 34.6243C35.0917 34.6432 34.9899 34.661 34.8881 34.6776C34.7863 34.6918 34.694 34.7048 34.6112 34.7166C34.4336 34.7427 34.2785 34.7841 34.146 34.8409C34.0134 34.8977 33.9104 34.9747 33.837 35.0717C33.7636 35.1664 33.7269 35.2848 33.7269 35.4268C33.7269 35.6328 33.8015 35.7902 33.9506 35.8991C34.1022 36.0057 34.2939 36.0589 34.5259 36.0589ZM39.0767 39.0455C38.8849 39.0455 38.705 39.0301 38.5369 38.9993C38.3712 38.9709 38.2339 38.9342 38.125 38.8892L38.4659 37.7599C38.6435 37.8144 38.8033 37.844 38.9453 37.8487C39.0897 37.8535 39.214 37.8203 39.3182 37.7493C39.4247 37.6783 39.5111 37.5575 39.5774 37.3871L39.6662 37.1562L37.7095 31.5455H39.3004L40.4297 35.5511H40.4865L41.6264 31.5455H43.228L41.108 37.5895C41.0062 37.883 40.8677 38.1387 40.6925 38.3565C40.5196 38.5767 40.3007 38.746 40.0355 38.8643C39.7704 38.9851 39.4508 39.0455 39.0767 39.0455ZM46.345 29.7273H48.2413L50.2441 34.6136H50.3294L52.3322 29.7273H54.2285V37H52.737V32.2663H52.6767L50.7946 36.9645H49.7789L47.8968 32.2486H47.8365V37H46.345V29.7273ZM57.0224 37.103C56.6744 37.103 56.3642 37.0426 56.092 36.9219C55.8197 36.7988 55.6043 36.6177 55.4457 36.3786C55.2894 36.1371 55.2113 35.8364 55.2113 35.4766C55.2113 35.1735 55.2669 34.919 55.3782 34.7131C55.4895 34.5071 55.641 34.3414 55.8327 34.2159C56.0245 34.0904 56.2423 33.9957 56.4862 33.9318C56.7324 33.8679 56.9904 33.8229 57.2603 33.7969C57.5775 33.7637 57.8332 33.733 58.0273 33.7045C58.2215 33.6738 58.3623 33.6288 58.4499 33.5696C58.5375 33.5104 58.5813 33.4228 58.5813 33.3068V33.2855C58.5813 33.0606 58.5103 32.8866 58.3683 32.7635C58.2286 32.6404 58.0297 32.5788 57.7717 32.5788C57.4994 32.5788 57.2828 32.6392 57.1218 32.7599C56.9608 32.8783 56.8543 33.0275 56.8022 33.2074L55.4031 33.0938C55.4741 32.7623 55.6138 32.4759 55.8221 32.2344C56.0304 31.9905 56.2991 31.8035 56.6282 31.6733C56.9596 31.5407 57.3432 31.4744 57.7788 31.4744C58.0818 31.4744 58.3718 31.5099 58.6488 31.581C58.9281 31.652 59.1755 31.7621 59.391 31.9112C59.6088 32.0604 59.7804 32.2521 59.9059 32.4865C60.0314 32.7185 60.0941 32.9967 60.0941 33.321V37H58.6594V36.2436H58.6168C58.5292 36.4141 58.4121 36.5644 58.2653 36.6946C58.1185 36.8224 57.9421 36.9231 57.7362 36.9964C57.5302 37.0675 57.2923 37.103 57.0224 37.103ZM57.4556 36.0589C57.6781 36.0589 57.8746 36.0152 58.0451 35.9276C58.2156 35.8376 58.3493 35.7169 58.4464 35.5653C58.5434 35.4138 58.592 35.2422 58.592 35.0504V34.4716C58.5446 34.5024 58.4795 34.5308 58.3967 34.5568C58.3162 34.5805 58.225 34.603 58.1232 34.6243C58.0214 34.6432 57.9196 34.661 57.8178 34.6776C57.716 34.6918 57.6237 34.7048 57.5408 34.7166C57.3633 34.7427 57.2082 34.7841 57.0756 34.8409C56.9431 34.8977 56.8401 34.9747 56.7667 35.0717C56.6933 35.1664 56.6566 35.2848 56.6566 35.4268C56.6566 35.6328 56.7312 35.7902 56.8803 35.8991C57.0318 36.0057 57.2236 36.0589 57.4556 36.0589ZM61.2678 37V31.5455H62.7344V32.4972H62.7912C62.8906 32.1586 63.0575 31.9029 63.2919 31.7301C63.5263 31.5549 63.7962 31.4673 64.1016 31.4673C64.1773 31.4673 64.259 31.4721 64.3466 31.4815C64.4342 31.491 64.5111 31.504 64.5774 31.5206V32.8629C64.5064 32.8416 64.4081 32.8227 64.2827 32.8061C64.1572 32.7895 64.0424 32.7812 63.9382 32.7812C63.7157 32.7812 63.5168 32.8298 63.3416 32.9268C63.1688 33.0215 63.0315 33.1541 62.9297 33.3246C62.8303 33.495 62.7805 33.6915 62.7805 33.9141V37H61.2678ZM67.563 39.1591C67.073 39.1591 66.6528 39.0916 66.3024 38.9567C65.9544 38.8241 65.6774 38.643 65.4714 38.4134C65.2654 38.1837 65.1317 37.9257 65.0701 37.6392L66.4693 37.451C66.5119 37.5599 66.5794 37.6617 66.6717 37.7564C66.764 37.8511 66.8859 37.9268 67.0375 37.9837C67.1913 38.0429 67.3784 38.0724 67.5985 38.0724C67.9276 38.0724 68.1987 37.992 68.4118 37.831C68.6272 37.6723 68.7349 37.406 68.7349 37.032V36.0341H68.671C68.6047 36.1856 68.5053 36.3288 68.3727 36.4638C68.2401 36.5987 68.0697 36.7088 67.8613 36.794C67.653 36.8793 67.4044 36.9219 67.1156 36.9219C66.706 36.9219 66.3332 36.8272 65.997 36.6378C65.6632 36.446 65.3968 36.1536 65.198 35.7607C65.0015 35.3653 64.9032 34.8658 64.9032 34.2621C64.9032 33.6442 65.0038 33.1281 65.2051 32.7138C65.4063 32.2995 65.6738 31.9893 66.0076 31.7834C66.3438 31.5774 66.7119 31.4744 67.112 31.4744C67.4174 31.4744 67.6731 31.5265 67.8791 31.6307C68.085 31.7325 68.2508 31.8603 68.3762 32.0142C68.5041 32.1657 68.6023 32.3149 68.671 32.4616H68.7278V31.5455H70.2299V37.0533C70.2299 37.5173 70.1163 37.9055 69.889 38.218C69.6618 38.5305 69.3469 38.7649 68.9444 38.9212C68.5443 39.0798 68.0839 39.1591 67.563 39.1591ZM67.595 35.7855C67.8388 35.7855 68.0448 35.7251 68.2129 35.6044C68.3833 35.4813 68.5136 35.3061 68.6035 35.0788C68.6958 34.8492 68.742 34.5746 68.742 34.255C68.742 33.9354 68.697 33.6584 68.6071 33.424C68.5171 33.1873 68.3869 33.0038 68.2164 32.8736C68.046 32.7434 67.8388 32.6783 67.595 32.6783C67.3464 32.6783 67.1369 32.7457 66.9664 32.8807C66.796 33.0133 66.667 33.1979 66.5794 33.4347C66.4918 33.6714 66.448 33.9448 66.448 34.255C66.448 34.5698 66.4918 34.8421 66.5794 35.0717C66.6693 35.299 66.7984 35.4754 66.9664 35.6009C67.1369 35.724 67.3464 35.7855 67.595 35.7855ZM71.4338 37V31.5455H72.9466V37H71.4338ZM72.1937 30.8423C71.9688 30.8423 71.7759 30.7678 71.6149 30.6186C71.4563 30.4671 71.377 30.286 71.377 30.0753C71.377 29.867 71.4563 29.6882 71.6149 29.5391C71.7759 29.3875 71.9688 29.3118 72.1937 29.3118C72.4186 29.3118 72.6104 29.3875 72.769 29.5391C72.93 29.6882 73.0105 29.867 73.0105 30.0753C73.0105 30.286 72.93 30.4671 72.769 30.6186C72.6104 30.7678 72.4186 30.8423 72.1937 30.8423ZM75.6712 33.8466V37H74.1584V31.5455H75.6001V32.5078H75.6641C75.7848 32.1906 75.9872 31.9396 76.2713 31.755C76.5554 31.5679 76.8999 31.4744 77.3047 31.4744C77.6835 31.4744 78.0137 31.5573 78.2955 31.723C78.5772 31.8887 78.7962 32.1255 78.9524 32.4332C79.1087 32.7386 79.1868 33.1032 79.1868 33.527V37H77.674V33.7969C77.6764 33.4631 77.5911 33.2027 77.4183 33.0156C77.2455 32.8262 77.0076 32.7315 76.7045 32.7315C76.5009 32.7315 76.321 32.7753 76.1648 32.8629C76.0109 32.9505 75.8902 33.0784 75.8026 33.2464C75.7173 33.4122 75.6735 33.6122 75.6712 33.8466ZM87.5444 32.0781C87.4947 31.9053 87.4248 31.7526 87.3349 31.62C87.2449 31.4851 87.1348 31.3714 87.0046 31.2791C86.8768 31.1844 86.73 31.1122 86.5643 31.0625C86.4009 31.0128 86.2198 30.9879 86.021 30.9879C85.6493 30.9879 85.3226 31.0803 85.0408 31.2649C84.7615 31.4496 84.5437 31.7183 84.3874 32.071C84.2312 32.4214 84.1531 32.8499 84.1531 33.3565C84.1531 33.8632 84.23 34.294 84.3839 34.6491C84.5378 35.0043 84.7556 35.2753 85.0373 35.4624C85.319 35.647 85.6516 35.7393 86.0352 35.7393C86.3832 35.7393 86.6803 35.6778 86.9265 35.5547C87.1751 35.4292 87.3645 35.2528 87.4947 35.0256C87.6272 34.7983 87.6935 34.5296 87.6935 34.2195L88.006 34.2656H86.131V33.108H89.1744V34.0241C89.1744 34.6634 89.0394 35.2126 88.7695 35.6719C88.4996 36.1288 88.128 36.4815 87.6545 36.7301C87.181 36.9763 86.6388 37.0994 86.0281 37.0994C85.3462 37.0994 84.7473 36.9491 84.2312 36.6484C83.7151 36.3454 83.3126 35.9157 83.0238 35.3594C82.7373 34.8007 82.5941 34.1378 82.5941 33.3707C82.5941 32.7812 82.6793 32.2557 82.8498 31.794C83.0226 31.33 83.2641 30.937 83.5742 30.6151C83.8844 30.2931 84.2454 30.0481 84.6573 29.88C85.0692 29.7119 85.5155 29.6278 85.9961 29.6278C86.408 29.6278 86.7915 29.6882 87.1467 29.8089C87.5018 29.9273 87.8166 30.0954 88.0913 30.3132C88.3683 30.531 88.5943 30.7902 88.7695 31.0909C88.9447 31.3892 89.0572 31.7183 89.1069 32.0781H87.5444ZM91.8564 37.103C91.5083 37.103 91.1982 37.0426 90.926 36.9219C90.6537 36.7988 90.4383 36.6177 90.2797 36.3786C90.1234 36.1371 90.0453 35.8364 90.0453 35.4766C90.0453 35.1735 90.1009 34.919 90.2122 34.7131C90.3234 34.5071 90.475 34.3414 90.6667 34.2159C90.8585 34.0904 91.0763 33.9957 91.3201 33.9318C91.5663 33.8679 91.8244 33.8229 92.0943 33.7969C92.4115 33.7637 92.6672 33.733 92.8613 33.7045C93.0555 33.6738 93.1963 33.6288 93.2839 33.5696C93.3715 33.5104 93.4153 33.4228 93.4153 33.3068V33.2855C93.4153 33.0606 93.3443 32.8866 93.2022 32.7635C93.0626 32.6404 92.8637 32.5788 92.6056 32.5788C92.3334 32.5788 92.1168 32.6392 91.9558 32.7599C91.7948 32.8783 91.6883 33.0275 91.6362 33.2074L90.237 33.0938C90.3081 32.7623 90.4477 32.4759 90.6561 32.2344C90.8644 31.9905 91.1331 31.8035 91.4622 31.6733C91.7936 31.5407 92.1771 31.4744 92.6127 31.4744C92.9158 31.4744 93.2058 31.5099 93.4828 31.581C93.7621 31.652 94.0095 31.7621 94.225 31.9112C94.4428 32.0604 94.6144 32.2521 94.7399 32.4865C94.8654 32.7185 94.9281 32.9967 94.9281 33.321V37H93.4934V36.2436H93.4508C93.3632 36.4141 93.246 36.5644 93.0993 36.6946C92.9525 36.8224 92.7761 36.9231 92.5701 36.9964C92.3642 37.0675 92.1262 37.103 91.8564 37.103ZM92.2896 36.0589C92.5121 36.0589 92.7086 36.0152 92.8791 35.9276C93.0495 35.8376 93.1833 35.7169 93.2804 35.5653C93.3774 35.4138 93.426 35.2422 93.426 35.0504V34.4716C93.3786 34.5024 93.3135 34.5308 93.2306 34.5568C93.1502 34.5805 93.059 34.603 92.9572 34.6243C92.8554 34.6432 92.7536 34.661 92.6518 34.6776C92.55 34.6918 92.4577 34.7048 92.3748 34.7166C92.1973 34.7427 92.0422 34.7841 91.9096 34.8409C91.777 34.8977 91.6741 34.9747 91.6007 35.0717C91.5273 35.1664 91.4906 35.2848 91.4906 35.4268C91.4906 35.6328 91.5652 35.7902 91.7143 35.8991C91.8658 36.0057 92.0576 36.0589 92.2896 36.0589ZM96.1017 37V31.5455H97.5435V32.5078H97.6074C97.7211 32.1882 97.9105 31.9361 98.1756 31.7514C98.4408 31.5668 98.758 31.4744 99.1273 31.4744C99.5014 31.4744 99.8198 31.5679 100.083 31.755C100.345 31.9396 100.521 32.1906 100.608 32.5078H100.665C100.776 32.1953 100.977 31.9455 101.269 31.7585C101.562 31.5691 101.909 31.4744 102.309 31.4744C102.818 31.4744 103.231 31.6366 103.548 31.9609C103.868 32.2829 104.028 32.7398 104.028 33.3317V37H102.519V33.63C102.519 33.3269 102.438 33.0997 102.277 32.9482C102.116 32.7966 101.915 32.7209 101.673 32.7209C101.399 32.7209 101.185 32.8085 101.031 32.9837C100.877 33.1565 100.8 33.3849 100.8 33.669V37H99.3333V33.598C99.3333 33.3305 99.2563 33.1174 99.1025 32.9588C98.9509 32.8002 98.7509 32.7209 98.5023 32.7209C98.3342 32.7209 98.1827 32.7635 98.0478 32.8487C97.9152 32.9316 97.8098 33.0488 97.7317 33.2003C97.6536 33.3494 97.6145 33.5246 97.6145 33.7259V37H96.1017ZM107.709 37.1065C107.148 37.1065 106.665 36.9929 106.26 36.7656C105.857 36.536 105.547 36.2116 105.329 35.7926C105.112 35.3712 105.003 34.8729 105.003 34.2976C105.003 33.7365 105.112 33.2441 105.329 32.8203C105.547 32.3965 105.854 32.0663 106.249 31.8295C106.647 31.5928 107.113 31.4744 107.648 31.4744C108.008 31.4744 108.343 31.5324 108.653 31.6484C108.966 31.7621 109.238 31.9337 109.47 32.1634C109.704 32.393 109.887 32.6818 110.017 33.0298C110.147 33.3755 110.212 33.7803 110.212 34.2443V34.6598H105.606V33.7223H108.788C108.788 33.5045 108.741 33.3116 108.646 33.1435C108.551 32.9754 108.42 32.844 108.252 32.7493C108.086 32.6522 107.893 32.6037 107.673 32.6037C107.443 32.6037 107.24 32.657 107.062 32.7635C106.887 32.8677 106.75 33.0085 106.65 33.1861C106.551 33.3613 106.5 33.5566 106.498 33.772V34.6634C106.498 34.9332 106.547 35.1664 106.647 35.3629C106.749 35.5594 106.892 35.7109 107.077 35.8175C107.261 35.924 107.48 35.9773 107.733 35.9773C107.902 35.9773 108.055 35.9536 108.195 35.9062C108.335 35.8589 108.454 35.7879 108.554 35.6932C108.653 35.5985 108.729 35.4825 108.781 35.3452L110.18 35.4375C110.109 35.7737 109.964 36.0672 109.743 36.3182C109.526 36.5668 109.244 36.7609 108.898 36.9006C108.555 37.0379 108.158 37.1065 107.709 37.1065Z" fill="url(#paint1_linear_0_1)"/>
<defs>
<linearGradient id="paint0_linear_0_1" x1="-1.42282e-07" y1="25.6364" x2="14.5057" y2="-19.6321" gradientUnits="userSpaceOnUse">
<stop stop-color="#FF4D00"/>
<stop offset="1" stop-color="white"/>
</linearGradient>
<linearGradient id="paint1_linear_0_1" x1="-1.42282e-07" y1="37.5455" x2="1.75719" y2="21.0943" gradientUnits="userSpaceOnUse">
<stop stop-color="white"/>
<stop offset="1" stop-color="white"/>
</linearGradient>
</defs>
</svg>
