<svg width="130" height="51" viewBox="0 0 130 51" fill="none" xmlns="http://www.w3.org/2000/svg">
<path d="M5.0593 22H0.116122L7.64808 0.181818H13.5927L21.114 22H16.1708L10.7056 5.16761H10.5352L5.0593 22ZM4.75036 13.424H16.4265V17.0249H4.75036V13.424ZM23.6548 22V5.63636H28.0547V8.49148H28.2251C28.5234 7.47585 29.0241 6.70881 29.7273 6.19034C30.4304 5.66477 31.2401 5.40199 32.1562 5.40199C32.3835 5.40199 32.6286 5.41619 32.8913 5.4446C33.1541 5.47301 33.3849 5.51207 33.5838 5.56179V9.58878C33.3707 9.52486 33.076 9.46804 32.6996 9.41832C32.3232 9.36861 31.9787 9.34375 31.6662 9.34375C30.9986 9.34375 30.402 9.48935 29.8764 9.78054C29.358 10.0646 28.946 10.4624 28.6406 10.9737C28.3423 11.4851 28.1932 12.0746 28.1932 12.7422V22H23.6548ZM42.562 22.3196C40.8858 22.3196 39.4441 21.9645 38.2367 21.2543C37.0364 20.5369 36.1131 19.5426 35.4668 18.2713C34.8276 17 34.508 15.5369 34.508 13.8821C34.508 12.206 34.8311 10.7358 35.4775 9.47159C36.1309 8.20028 37.0577 7.20952 38.258 6.49929C39.4583 5.78196 40.8858 5.4233 42.5407 5.4233C43.9682 5.4233 45.2182 5.68253 46.2907 6.20099C47.3631 6.71946 48.2118 7.44744 48.8368 8.38494C49.4618 9.32244 49.8063 10.4233 49.8702 11.6875H45.5875C45.4668 10.8707 45.1472 10.2138 44.6287 9.71662C44.1174 9.21236 43.4462 8.96023 42.6152 8.96023C41.9121 8.96023 41.2978 9.15199 40.7722 9.53551C40.2537 9.91193 39.8489 10.4624 39.5577 11.1868C39.2665 11.9112 39.1209 12.7884 39.1209 13.8182C39.1209 14.8622 39.263 15.75 39.5471 16.4815C39.8382 17.2131 40.2466 17.7706 40.7722 18.1541C41.2978 18.5376 41.9121 18.7294 42.6152 18.7294C43.1337 18.7294 43.5989 18.6229 44.0108 18.4098C44.4299 18.1967 44.7743 17.8878 45.0442 17.483C45.3212 17.071 45.5023 16.5774 45.5875 16.0021H49.8702C49.7992 17.2521 49.4583 18.353 48.8475 19.3047C48.2438 20.2493 47.4093 20.9879 46.3439 21.5206C45.2786 22.0533 44.0179 22.3196 42.562 22.3196ZM57.3143 12.5398V22H52.7759V0.181818H57.1864V8.52344H57.3782C57.7475 7.55753 58.3441 6.80114 59.168 6.25426C59.9918 5.70028 61.0252 5.4233 62.2681 5.4233C63.4045 5.4233 64.3952 5.67187 65.2404 6.16903C66.0927 6.65909 66.7532 7.36577 67.2219 8.28906C67.6978 9.20526 67.9322 10.3026 67.9251 11.581V22H63.3867V12.3906C63.3938 11.3821 63.1381 10.5973 62.6197 10.0362C62.1083 9.47514 61.391 9.1946 60.4677 9.1946C59.8498 9.1946 59.3029 9.32599 58.8271 9.58878C58.3583 9.85156 57.989 10.2351 57.7191 10.7393C57.4563 11.2365 57.3214 11.8366 57.3143 12.5398ZM74.7246 22L70.2715 5.63636H74.8631L77.3986 16.6307H77.5478L80.1898 5.63636H84.6962L87.3809 16.5668H87.5194L90.0123 5.63636H94.5932L90.1507 22H85.3461L82.5336 11.7088H82.3311L79.5186 22H74.7246ZM101.68 22.3089C100.636 22.3089 99.706 22.1278 98.8892 21.7656C98.0724 21.3963 97.4261 20.853 96.9503 20.1357C96.4815 19.4112 96.2472 18.5092 96.2472 17.4297C96.2472 16.5206 96.4141 15.7571 96.7479 15.1392C97.0817 14.5213 97.5362 14.0241 98.1115 13.6477C98.6868 13.2713 99.3402 12.9872 100.072 12.7955C100.81 12.6037 101.585 12.4688 102.394 12.3906C103.346 12.2912 104.113 12.1989 104.695 12.1136C105.278 12.0213 105.7 11.8864 105.963 11.7088C106.226 11.5312 106.357 11.2685 106.357 10.9205V10.8565C106.357 10.1818 106.144 9.6598 105.718 9.29048C105.299 8.92116 104.702 8.73651 103.928 8.73651C103.112 8.73651 102.462 8.91761 101.979 9.27983C101.496 9.63494 101.176 10.0824 101.02 10.6222L96.8224 10.2812C97.0355 9.28693 97.4545 8.42756 98.0795 7.70312C98.7045 6.97159 99.5107 6.41051 100.498 6.01989C101.492 5.62216 102.643 5.4233 103.95 5.4233C104.859 5.4233 105.729 5.52983 106.56 5.7429C107.398 5.95597 108.14 6.28622 108.786 6.73366C109.44 7.18111 109.955 7.75639 110.331 8.45952C110.707 9.15554 110.896 9.99006 110.896 10.9631V22H106.592V19.7308H106.464C106.201 20.2422 105.849 20.6932 105.409 21.0838C104.969 21.4673 104.44 21.7692 103.822 21.9893C103.204 22.2024 102.49 22.3089 101.68 22.3089ZM102.98 19.1768C103.648 19.1768 104.237 19.0455 104.749 18.7827C105.26 18.5128 105.661 18.1506 105.952 17.696C106.244 17.2415 106.389 16.7266 106.389 16.1513V14.4148C106.247 14.5071 106.052 14.5923 105.803 14.6705C105.562 14.7415 105.288 14.8089 104.983 14.8729C104.678 14.9297 104.372 14.983 104.067 15.0327C103.761 15.0753 103.484 15.1143 103.236 15.1499C102.703 15.228 102.238 15.3523 101.84 15.5227C101.442 15.6932 101.134 15.924 100.913 16.2152C100.693 16.4993 100.583 16.8544 100.583 17.2805C100.583 17.8984 100.807 18.3707 101.254 18.6974C101.709 19.017 102.284 19.1768 102.98 19.1768ZM116.632 28.1364C116.057 28.1364 115.517 28.0902 115.013 27.9979C114.516 27.9126 114.104 27.8026 113.777 27.6676L114.8 24.2798C115.333 24.4432 115.812 24.532 116.238 24.5462C116.672 24.5604 117.044 24.4609 117.357 24.2479C117.676 24.0348 117.936 23.6726 118.135 23.1612L118.401 22.4688L112.531 5.63636H117.304L120.691 17.6534H120.862L124.282 5.63636H129.086L122.726 23.7685C122.421 24.6491 122.005 25.4162 121.48 26.0696C120.961 26.7301 120.304 27.2379 119.509 27.593C118.713 27.9553 117.755 28.1364 116.632 28.1364ZM0.881392 31.4545H4.67401L8.67969 41.2273H8.85014L12.8558 31.4545H16.6484V46H13.6655V36.5327H13.5447L9.78054 45.929H7.74929L3.98509 36.4972H3.86435V46H0.881392V31.4545ZM22.2362 46.206C21.5401 46.206 20.9199 46.0852 20.3754 45.8438C19.8308 45.5975 19.4 45.2353 19.0827 44.7571C18.7702 44.2741 18.614 43.6728 18.614 42.9531C18.614 42.3471 18.7253 41.8381 18.9478 41.4261C19.1703 41.0142 19.4734 40.6828 19.8569 40.4318C20.2404 40.1809 20.676 39.9915 21.1637 39.8636C21.6561 39.7358 22.1722 39.6458 22.712 39.5938C23.3465 39.5275 23.8578 39.4659 24.2461 39.4091C24.6344 39.3475 24.9161 39.2576 25.0913 39.1392C25.2665 39.0208 25.354 38.8456 25.354 38.6136V38.571C25.354 38.1212 25.212 37.7732 24.9279 37.527C24.6486 37.2808 24.2508 37.1577 23.7347 37.1577C23.1902 37.1577 22.757 37.2784 22.435 37.5199C22.113 37.7566 21.9 38.0549 21.7958 38.4148L18.9975 38.1875C19.1396 37.5246 19.4189 36.9517 19.8356 36.4688C20.2522 35.9811 20.7897 35.607 21.4478 35.3466C22.1107 35.0814 22.8777 34.9489 23.7489 34.9489C24.355 34.9489 24.935 35.0199 25.489 35.1619C26.0477 35.304 26.5425 35.5241 26.9734 35.8224C27.409 36.1207 27.7522 36.5043 28.0032 36.973C28.2541 37.437 28.3796 37.9934 28.3796 38.642V46H25.5103V44.4872H25.4251C25.2499 44.8281 25.0155 45.1288 24.7219 45.3892C24.4284 45.6449 24.0756 45.8461 23.6637 45.9929C23.2518 46.1349 22.7759 46.206 22.2362 46.206ZM23.1026 44.1179C23.5477 44.1179 23.9407 44.0303 24.2816 43.8551C24.6225 43.6752 24.89 43.4337 25.0842 43.1307C25.2783 42.8277 25.3754 42.4844 25.3754 42.1009V40.9432C25.2807 41.0047 25.1505 41.0616 24.9847 41.1136C24.8237 41.161 24.6415 41.206 24.4379 41.2486C24.2343 41.2865 24.0307 41.322 23.8271 41.3551C23.6235 41.3835 23.4388 41.4096 23.2731 41.4332C22.918 41.4853 22.6078 41.5682 22.3427 41.6818C22.0775 41.7955 21.8716 41.9493 21.7248 42.1435C21.578 42.3329 21.5046 42.5696 21.5046 42.8537C21.5046 43.2656 21.6538 43.5805 21.9521 43.7983C22.2551 44.0114 22.6386 44.1179 23.1026 44.1179ZM30.7269 46V35.0909H33.6602V36.9943H33.7738C33.9727 36.3172 34.3065 35.8059 34.7752 35.4602C35.244 35.1098 35.7837 34.9347 36.3945 34.9347C36.546 34.9347 36.7094 34.9441 36.8846 34.9631C37.0598 34.982 37.2137 35.008 37.3462 35.0412V37.7259C37.2042 37.6832 37.0077 37.6454 36.7567 37.6122C36.5058 37.5791 36.2762 37.5625 36.0678 37.5625C35.6228 37.5625 35.225 37.6596 34.8746 37.8537C34.529 38.0431 34.2544 38.3082 34.0508 38.6491C33.8519 38.9901 33.7525 39.383 33.7525 39.8281V46H30.7269ZM43.3175 50.3182C42.3374 50.3182 41.4969 50.1832 40.7962 49.9134C40.1001 49.6482 39.5462 49.286 39.1342 48.8267C38.7223 48.3674 38.4548 47.8513 38.3317 47.2784L41.13 46.902C41.2152 47.1198 41.3501 47.3234 41.5348 47.5128C41.7195 47.7022 41.9633 47.8537 42.2663 47.9673C42.5741 48.0857 42.9482 48.1449 43.3885 48.1449C44.0466 48.1449 44.5888 47.9839 45.0149 47.6619C45.4458 47.3447 45.6612 46.812 45.6612 46.0639V44.0682H45.5334C45.4008 44.3712 45.2019 44.6577 44.9368 44.9276C44.6716 45.1974 44.3307 45.4176 43.9141 45.5881C43.4974 45.7585 43.0002 45.8438 42.4226 45.8438C41.6035 45.8438 40.8577 45.6544 40.1854 45.2756C39.5178 44.892 38.9851 44.3073 38.5874 43.5213C38.1944 42.7306 37.9979 41.7315 37.9979 40.5241C37.9979 39.2884 38.1991 38.2562 38.6016 37.4276C39.004 36.599 39.5391 35.9787 40.2067 35.5668C40.879 35.1548 41.6153 34.9489 42.4155 34.9489C43.0263 34.9489 43.5376 35.053 43.9496 35.2614C44.3615 35.465 44.6929 35.7206 44.9439 36.0284C45.1996 36.3314 45.3961 36.6297 45.5334 36.9233H45.647V35.0909H48.6513V46.1065C48.6513 47.0346 48.424 47.8111 47.9695 48.4361C47.5149 49.0611 46.8852 49.5298 46.0803 49.8423C45.2801 50.1596 44.3591 50.3182 43.3175 50.3182ZM43.3814 43.571C43.8691 43.571 44.281 43.4503 44.6172 43.2088C44.9581 42.9626 45.2185 42.6122 45.3984 42.1577C45.5831 41.6984 45.6754 41.1491 45.6754 40.5099C45.6754 39.8707 45.5855 39.3168 45.4055 38.848C45.2256 38.3745 44.9652 38.0076 44.6243 37.7472C44.2834 37.4867 43.8691 37.3565 43.3814 37.3565C42.8842 37.3565 42.4652 37.4915 42.1243 37.7614C41.7834 38.0265 41.5253 38.3958 41.3501 38.8693C41.175 39.3428 41.0874 39.8897 41.0874 40.5099C41.0874 41.1397 41.175 41.6842 41.3501 42.1435C41.5301 42.598 41.7881 42.9508 42.1243 43.2017C42.4652 43.4479 42.8842 43.571 43.3814 43.571ZM51.0589 46V35.0909H54.0845V46H51.0589ZM52.5788 33.6847C52.129 33.6847 51.7431 33.5355 51.4212 33.2372C51.1039 32.9342 50.9453 32.572 50.9453 32.1506C50.9453 31.7339 51.1039 31.3764 51.4212 31.0781C51.7431 30.7751 52.129 30.6236 52.5788 30.6236C53.0286 30.6236 53.4122 30.7751 53.7294 31.0781C54.0514 31.3764 54.2124 31.7339 54.2124 32.1506C54.2124 32.572 54.0514 32.9342 53.7294 33.2372C53.4122 33.5355 53.0286 33.6847 52.5788 33.6847ZM59.5337 39.6932V46H56.5082V35.0909H59.3917V37.0156H59.5195C59.761 36.3812 60.1658 35.8793 60.734 35.5099C61.3022 35.1359 61.9911 34.9489 62.8008 34.9489C63.5584 34.9489 64.2189 35.1146 64.7823 35.446C65.3458 35.7775 65.7837 36.2509 66.0962 36.8665C66.4087 37.4773 66.565 38.2064 66.565 39.054V46H63.5394V39.5938C63.5442 38.9261 63.3737 38.4053 63.0281 38.0312C62.6824 37.6525 62.2066 37.4631 61.6005 37.4631C61.1933 37.4631 60.8335 37.5507 60.521 37.7259C60.2132 37.901 59.9717 38.1567 59.7965 38.4929C59.6261 38.8243 59.5385 39.2244 59.5337 39.6932ZM83.2802 36.1562C83.1808 35.8106 83.0411 35.5052 82.8612 35.2401C82.6812 34.9702 82.4611 34.7429 82.2006 34.5582C81.945 34.3688 81.6514 34.2244 81.32 34.125C80.9933 34.0256 80.631 33.9759 80.2333 33.9759C79.4899 33.9759 78.8365 34.1605 78.2731 34.5298C77.7144 34.8991 77.2788 35.4366 76.9663 36.142C76.6538 36.8428 76.4975 37.6998 76.4975 38.7131C76.4975 39.7263 76.6514 40.5881 76.9592 41.2983C77.2669 42.0085 77.7025 42.5507 78.266 42.9247C78.8294 43.294 79.4947 43.4787 80.2617 43.4787C80.9577 43.4787 81.552 43.3556 82.0444 43.1094C82.5415 42.8584 82.9203 42.5057 83.1808 42.0511C83.4459 41.5966 83.5785 41.0592 83.5785 40.4389L84.2035 40.5312H80.4535V38.2159H86.5401V40.0483C86.5401 41.3267 86.2702 42.4252 85.7305 43.3438C85.1907 44.2576 84.4473 44.9631 83.5004 45.4602C82.5534 45.9527 81.4691 46.1989 80.2475 46.1989C78.8839 46.1989 77.686 45.8982 76.6538 45.2969C75.6216 44.6908 74.8166 43.8314 74.239 42.7188C73.6661 41.6013 73.3796 40.2756 73.3796 38.7415C73.3796 37.5625 73.5501 36.5114 73.891 35.5881C74.2366 34.66 74.7196 33.8741 75.3398 33.2301C75.9601 32.5862 76.6822 32.0961 77.506 31.7599C78.3299 31.4238 79.2224 31.2557 80.1836 31.2557C81.0075 31.2557 81.7745 31.3764 82.4847 31.6179C83.195 31.8546 83.8247 32.1908 84.3739 32.6264C84.9279 33.062 85.3801 33.5805 85.7305 34.1818C86.0808 34.7784 86.3058 35.4366 86.4052 36.1562H83.2802ZM91.9041 46.206C91.2081 46.206 90.5878 46.0852 90.0433 45.8438C89.4988 45.5975 89.0679 45.2353 88.7507 44.7571C88.4382 44.2741 88.282 43.6728 88.282 42.9531C88.282 42.3471 88.3932 41.8381 88.6158 41.4261C88.8383 41.0142 89.1413 40.6828 89.5249 40.4318C89.9084 40.1809 90.344 39.9915 90.8317 39.8636C91.3241 39.7358 91.8402 39.6458 92.38 39.5938C93.0144 39.5275 93.5258 39.4659 93.9141 39.4091C94.3023 39.3475 94.584 39.2576 94.7592 39.1392C94.9344 39.0208 95.022 38.8456 95.022 38.6136V38.571C95.022 38.1212 94.88 37.7732 94.5959 37.527C94.3165 37.2808 93.9188 37.1577 93.4027 37.1577C92.8582 37.1577 92.425 37.2784 92.103 37.5199C91.781 37.7566 91.5679 38.0549 91.4638 38.4148L88.6655 38.1875C88.8075 37.5246 89.0869 36.9517 89.5036 36.4688C89.9202 35.9811 90.4576 35.607 91.1158 35.3466C91.7786 35.0814 92.5457 34.9489 93.4169 34.9489C94.023 34.9489 94.603 35.0199 95.157 35.1619C95.7157 35.304 96.2105 35.5241 96.6413 35.8224C97.0769 36.1207 97.4202 36.5043 97.6712 36.973C97.9221 37.437 98.0476 37.9934 98.0476 38.642V46H95.1783V44.4872H95.093C94.9179 44.8281 94.6835 45.1288 94.3899 45.3892C94.0964 45.6449 93.7436 45.8461 93.3317 45.9929C92.9197 46.1349 92.4439 46.206 91.9041 46.206ZM92.7706 44.1179C93.2157 44.1179 93.6087 44.0303 93.9496 43.8551C94.2905 43.6752 94.558 43.4337 94.7521 43.1307C94.9463 42.8277 95.0433 42.4844 95.0433 42.1009V40.9432C94.9486 41.0047 94.8184 41.0616 94.6527 41.1136C94.4917 41.161 94.3094 41.206 94.1058 41.2486C93.9022 41.2865 93.6986 41.322 93.495 41.3551C93.2914 41.3835 93.1068 41.4096 92.9411 41.4332C92.5859 41.4853 92.2758 41.5682 92.0107 41.6818C91.7455 41.7955 91.5395 41.9493 91.3928 42.1435C91.246 42.3329 91.1726 42.5696 91.1726 42.8537C91.1726 43.2656 91.3217 43.5805 91.62 43.7983C91.9231 44.0114 92.3066 44.1179 92.7706 44.1179ZM100.395 46V35.0909H103.278V37.0156H103.406C103.634 36.3764 104.012 35.8722 104.543 35.5028C105.073 35.1335 105.707 34.9489 106.446 34.9489C107.194 34.9489 107.831 35.1359 108.357 35.5099C108.882 35.8793 109.232 36.3812 109.408 37.0156H109.521C109.744 36.3906 110.146 35.8911 110.729 35.517C111.316 35.1383 112.009 34.9489 112.81 34.9489C113.828 34.9489 114.654 35.2732 115.288 35.9219C115.928 36.5658 116.247 37.4796 116.247 38.6634V46H113.229V39.2599C113.229 38.6539 113.068 38.1993 112.746 37.8963C112.424 37.5933 112.021 37.4418 111.538 37.4418C110.989 37.4418 110.561 37.617 110.253 37.9673C109.945 38.313 109.791 38.7699 109.791 39.3381V46H106.858V39.196C106.858 38.661 106.704 38.2348 106.396 37.9176C106.093 37.6004 105.693 37.4418 105.196 37.4418C104.86 37.4418 104.557 37.527 104.287 37.6974C104.022 37.8632 103.811 38.0975 103.655 38.4006C103.499 38.6989 103.42 39.0492 103.42 39.4517V46H100.395ZM123.609 46.2131C122.487 46.2131 121.521 45.9858 120.711 45.5312C119.906 45.072 119.286 44.4233 118.85 43.5852C118.415 42.7424 118.197 41.7457 118.197 40.5952C118.197 39.473 118.415 38.4882 118.85 37.6406C119.286 36.7931 119.899 36.1326 120.69 35.6591C121.485 35.1856 122.418 34.9489 123.488 34.9489C124.208 34.9489 124.878 35.0649 125.498 35.2969C126.123 35.5241 126.667 35.8674 127.131 36.3267C127.6 36.786 127.965 37.3636 128.225 38.0597C128.486 38.7509 128.616 39.5606 128.616 40.4886V41.3196H119.404V39.4446H125.768C125.768 39.009 125.673 38.6231 125.484 38.2869C125.294 37.9508 125.031 37.688 124.695 37.4986C124.364 37.3045 123.978 37.2074 123.538 37.2074C123.078 37.2074 122.671 37.3139 122.316 37.527C121.966 37.7353 121.691 38.017 121.492 38.3722C121.293 38.7225 121.192 39.1132 121.187 39.544V41.3267C121.187 41.8665 121.286 42.3329 121.485 42.7259C121.689 43.1188 121.975 43.4219 122.344 43.6349C122.714 43.848 123.152 43.9545 123.658 43.9545C123.995 43.9545 124.302 43.9072 124.582 43.8125C124.861 43.7178 125.1 43.5758 125.299 43.3864C125.498 43.197 125.649 42.965 125.754 42.6903L128.552 42.875C128.41 43.5473 128.119 44.1345 127.678 44.6364C127.243 45.1335 126.679 45.5218 125.988 45.8011C125.301 46.0758 124.508 46.2131 123.609 46.2131Z" fill="url(#paint0_linear_122_816)"/>
<defs>
<linearGradient id="paint0_linear_122_816" x1="64.5" y1="5.08333" x2="64.5" y2="44.9583" gradientUnits="userSpaceOnUse">
<stop stop-color="#FF4D00"/>
<stop offset="1" stop-color="white"/>
</linearGradient>
</defs>
</svg>
