<svg width="129" height="44" viewBox="0 0 129 44" fill="none" xmlns="http://www.w3.org/2000/svg">
<path d="M24.3729 15H21.0774L26.0987 0.454545H30.0618L35.076 15H31.7805L28.1371 3.77841H28.0234L24.3729 15ZM24.1669 9.28267H31.951V11.6832H24.1669V9.28267ZM36.7699 15V4.09091H39.7031V5.99432H39.8168C40.0156 5.31723 40.3494 4.80587 40.8182 4.46023C41.2869 4.10985 41.8267 3.93466 42.4375 3.93466C42.589 3.93466 42.7524 3.94413 42.9276 3.96307C43.1027 3.98201 43.2566 4.00805 43.3892 4.04119V6.72585C43.2472 6.68324 43.0507 6.64536 42.7997 6.61222C42.5488 6.57907 42.3191 6.5625 42.1108 6.5625C41.6657 6.5625 41.268 6.65956 40.9176 6.85369C40.572 7.04309 40.2973 7.30824 40.0938 7.64915C39.8949 7.99006 39.7955 8.38305 39.7955 8.82812V15H36.7699ZM49.3746 15.2131C48.2572 15.2131 47.296 14.9763 46.4911 14.5028C45.6909 14.0246 45.0754 13.3617 44.6445 12.5142C44.2184 11.6667 44.0053 10.6913 44.0053 9.58807C44.0053 8.47064 44.2208 7.49053 44.6516 6.64773C45.0872 5.80019 45.7051 5.13968 46.5053 4.66619C47.3055 4.18797 48.2572 3.94886 49.3604 3.94886C50.3121 3.94886 51.1455 4.12169 51.8604 4.46733C52.5754 4.81297 53.1412 5.2983 53.5579 5.9233C53.9746 6.5483 54.2042 7.2822 54.2468 8.125H51.3917C51.3112 7.58049 51.0981 7.14252 50.7525 6.81108C50.4116 6.47491 49.9641 6.30682 49.4102 6.30682C48.9414 6.30682 48.5318 6.43466 48.1815 6.69034C47.8358 6.94129 47.5659 7.30824 47.3718 7.79119C47.1777 8.27415 47.0806 8.8589 47.0806 9.54545C47.0806 10.2415 47.1753 10.8333 47.3647 11.321C47.5588 11.8087 47.8311 12.1804 48.1815 12.4361C48.5318 12.6918 48.9414 12.8196 49.4102 12.8196C49.7558 12.8196 50.0659 12.7486 50.3406 12.6065C50.6199 12.4645 50.8496 12.2585 51.0295 11.9886C51.2141 11.714 51.3349 11.3849 51.3917 11.0014H54.2468C54.1995 11.8348 53.9722 12.5687 53.565 13.2031C53.1625 13.8329 52.6062 14.3253 51.896 14.6804C51.1857 15.0355 50.3453 15.2131 49.3746 15.2131ZM59.2095 8.69318V15H56.1839V0.454545H59.1243V6.01562H59.2521C59.4983 5.37169 59.8961 4.86742 60.4453 4.50284C60.9946 4.13352 61.6835 3.94886 62.5121 3.94886C63.2696 3.94886 63.9302 4.11458 64.4936 4.44602C65.0618 4.77273 65.5021 5.24384 65.8146 5.85938C66.1319 6.47017 66.2881 7.2017 66.2834 8.05398V15H63.2578V8.59375C63.2625 7.9214 63.0921 7.3982 62.7464 7.02415C62.4055 6.65009 61.9273 6.46307 61.3118 6.46307C60.8999 6.46307 60.5353 6.55066 60.218 6.72585C59.9055 6.90104 59.6593 7.15672 59.4794 7.4929C59.3042 7.82434 59.2143 8.22443 59.2095 8.69318ZM70.8164 15L67.8477 4.09091H70.9087L72.5991 11.4205H72.6985L74.4599 4.09091H77.4641L79.2539 11.3778H79.3462L81.0082 4.09091H84.0621L81.1005 15H77.8974L76.0224 8.1392H75.8874L74.0124 15H70.8164ZM88.7869 15.206C88.0909 15.206 87.4706 15.0852 86.9261 14.8438C86.3816 14.5975 85.9508 14.2353 85.6335 13.7571C85.321 13.2741 85.1648 12.6728 85.1648 11.9531C85.1648 11.3471 85.276 10.8381 85.4986 10.4261C85.7211 10.0142 86.0241 9.68277 86.4077 9.43182C86.7912 9.18087 87.2268 8.99148 87.7145 8.86364C88.2069 8.7358 88.723 8.64583 89.2628 8.59375C89.8973 8.52746 90.4086 8.46591 90.7969 8.40909C91.1851 8.34754 91.4669 8.25758 91.642 8.1392C91.8172 8.02083 91.9048 7.84564 91.9048 7.61364V7.57102C91.9048 7.12121 91.7628 6.7732 91.4787 6.52699C91.1993 6.28078 90.8016 6.15767 90.2855 6.15767C89.741 6.15767 89.3078 6.27841 88.9858 6.51989C88.6638 6.75663 88.4508 7.05492 88.3466 7.41477L85.5483 7.1875C85.6903 6.52462 85.9697 5.9517 86.3864 5.46875C86.803 4.98106 87.3404 4.60701 87.9986 4.34659C88.6615 4.08144 89.4285 3.94886 90.2997 3.94886C90.9058 3.94886 91.4858 4.01989 92.0398 4.16193C92.5985 4.30398 93.0933 4.52415 93.5241 4.82244C93.9598 5.12074 94.303 5.50426 94.554 5.97301C94.8049 6.43703 94.9304 6.99337 94.9304 7.64205V15H92.0611V13.4872H91.9759C91.8007 13.8281 91.5663 14.1288 91.2727 14.3892C90.9792 14.6449 90.6264 14.8461 90.2145 14.9929C89.8026 15.1349 89.3267 15.206 88.7869 15.206ZM89.6534 13.1179C90.0985 13.1179 90.4915 13.0303 90.8324 12.8551C91.1733 12.6752 91.4408 12.4337 91.6349 12.1307C91.8291 11.8277 91.9261 11.4844 91.9261 11.1009V9.94318C91.8314 10.0047 91.7012 10.0616 91.5355 10.1136C91.3745 10.161 91.1922 10.206 90.9886 10.2486C90.785 10.2865 90.5814 10.322 90.3778 10.3551C90.1742 10.3835 89.9896 10.4096 89.8239 10.4332C89.4688 10.4853 89.1586 10.5682 88.8935 10.6818C88.6283 10.7955 88.4223 10.9493 88.2756 11.1435C88.1288 11.3329 88.0554 11.5696 88.0554 11.8537C88.0554 12.2656 88.2045 12.5805 88.5028 12.7983C88.8059 13.0114 89.1894 13.1179 89.6534 13.1179ZM98.755 19.0909C98.3714 19.0909 98.0116 19.0601 97.6754 18.9986C97.344 18.9418 97.0694 18.8684 96.8516 18.7784L97.5334 16.5199C97.8885 16.6288 98.2081 16.688 98.4922 16.6974C98.781 16.7069 99.0296 16.6406 99.2379 16.4986C99.451 16.3565 99.6238 16.1151 99.7564 15.7741L99.9339 15.3125L96.0206 4.09091H99.2024L101.461 12.1023H101.575L103.854 4.09091H107.058L102.817 16.179C102.614 16.7661 102.337 17.2775 101.987 17.7131C101.641 18.1534 101.203 18.492 100.673 18.7287C100.142 18.9702 99.5031 19.0909 98.755 19.0909ZM0.381392 24.4545H4.17401L8.17969 34.2273H8.35014L12.3558 24.4545H16.1484V39H13.1655V29.5327H13.0447L9.28054 38.929H7.24929L3.48509 29.4972H3.36435V39H0.381392V24.4545ZM21.7362 39.206C21.0401 39.206 20.4199 39.0852 19.8754 38.8438C19.3308 38.5975 18.9 38.2353 18.5827 37.7571C18.2702 37.2741 18.114 36.6728 18.114 35.9531C18.114 35.3471 18.2253 34.8381 18.4478 34.4261C18.6703 34.0142 18.9734 33.6828 19.3569 33.4318C19.7404 33.1809 20.176 32.9915 20.6637 32.8636C21.1561 32.7358 21.6722 32.6458 22.212 32.5938C22.8465 32.5275 23.3578 32.4659 23.7461 32.4091C24.1344 32.3475 24.4161 32.2576 24.5913 32.1392C24.7665 32.0208 24.854 31.8456 24.854 31.6136V31.571C24.854 31.1212 24.712 30.7732 24.4279 30.527C24.1486 30.2808 23.7508 30.1577 23.2347 30.1577C22.6902 30.1577 22.257 30.2784 21.935 30.5199C21.613 30.7566 21.4 31.0549 21.2958 31.4148L18.4975 31.1875C18.6396 30.5246 18.9189 29.9517 19.3356 29.4688C19.7522 28.9811 20.2897 28.607 20.9478 28.3466C21.6107 28.0814 22.3777 27.9489 23.2489 27.9489C23.855 27.9489 24.435 28.0199 24.989 28.1619C25.5477 28.304 26.0425 28.5241 26.4734 28.8224C26.909 29.1207 27.2522 29.5043 27.5032 29.973C27.7541 30.437 27.8796 30.9934 27.8796 31.642V39H25.0103V37.4872H24.9251C24.7499 37.8281 24.5155 38.1288 24.2219 38.3892C23.9284 38.6449 23.5756 38.8461 23.1637 38.9929C22.7518 39.1349 22.2759 39.206 21.7362 39.206ZM22.6026 37.1179C23.0477 37.1179 23.4407 37.0303 23.7816 36.8551C24.1225 36.6752 24.39 36.4337 24.5842 36.1307C24.7783 35.8277 24.8754 35.4844 24.8754 35.1009V33.9432C24.7807 34.0047 24.6505 34.0616 24.4847 34.1136C24.3237 34.161 24.1415 34.206 23.9379 34.2486C23.7343 34.2865 23.5307 34.322 23.3271 34.3551C23.1235 34.3835 22.9388 34.4096 22.7731 34.4332C22.418 34.4853 22.1078 34.5682 21.8427 34.6818C21.5775 34.7955 21.3716 34.9493 21.2248 35.1435C21.078 35.3329 21.0046 35.5696 21.0046 35.8537C21.0046 36.2656 21.1538 36.5805 21.4521 36.7983C21.7551 37.0114 22.1386 37.1179 22.6026 37.1179ZM30.2269 39V28.0909H33.1602V29.9943H33.2738C33.4727 29.3172 33.8065 28.8059 34.2752 28.4602C34.744 28.1098 35.2837 27.9347 35.8945 27.9347C36.046 27.9347 36.2094 27.9441 36.3846 27.9631C36.5598 27.982 36.7137 28.008 36.8462 28.0412V30.7259C36.7042 30.6832 36.5077 30.6454 36.2567 30.6122C36.0058 30.5791 35.7762 30.5625 35.5678 30.5625C35.1228 30.5625 34.725 30.6596 34.3746 30.8537C34.029 31.0431 33.7544 31.3082 33.5508 31.6491C33.3519 31.9901 33.2525 32.383 33.2525 32.8281V39H30.2269ZM42.8175 43.3182C41.8374 43.3182 40.9969 43.1832 40.2962 42.9134C39.6001 42.6482 39.0462 42.286 38.6342 41.8267C38.2223 41.3674 37.9548 40.8513 37.8317 40.2784L40.63 39.902C40.7152 40.1198 40.8501 40.3234 41.0348 40.5128C41.2195 40.7022 41.4633 40.8537 41.7663 40.9673C42.0741 41.0857 42.4482 41.1449 42.8885 41.1449C43.5466 41.1449 44.0888 40.9839 44.5149 40.6619C44.9458 40.3447 45.1612 39.812 45.1612 39.0639V37.0682H45.0334C44.9008 37.3712 44.7019 37.6577 44.4368 37.9276C44.1716 38.1974 43.8307 38.4176 43.4141 38.5881C42.9974 38.7585 42.5002 38.8438 41.9226 38.8438C41.1035 38.8438 40.3577 38.6544 39.6854 38.2756C39.0178 37.892 38.4851 37.3073 38.0874 36.5213C37.6944 35.7306 37.4979 34.7315 37.4979 33.5241C37.4979 32.2884 37.6991 31.2562 38.1016 30.4276C38.504 29.599 39.0391 28.9787 39.7067 28.5668C40.379 28.1548 41.1153 27.9489 41.9155 27.9489C42.5263 27.9489 43.0376 28.053 43.4496 28.2614C43.8615 28.465 44.1929 28.7206 44.4439 29.0284C44.6996 29.3314 44.8961 29.6297 45.0334 29.9233H45.147V28.0909H48.1513V39.1065C48.1513 40.0346 47.924 40.8111 47.4695 41.4361C47.0149 42.0611 46.3852 42.5298 45.5803 42.8423C44.7801 43.1596 43.8591 43.3182 42.8175 43.3182ZM42.8814 36.571C43.3691 36.571 43.781 36.4503 44.1172 36.2088C44.4581 35.9626 44.7185 35.6122 44.8984 35.1577C45.0831 34.6984 45.1754 34.1491 45.1754 33.5099C45.1754 32.8707 45.0855 32.3168 44.9055 31.848C44.7256 31.3745 44.4652 31.0076 44.1243 30.7472C43.7834 30.4867 43.3691 30.3565 42.8814 30.3565C42.3842 30.3565 41.9652 30.4915 41.6243 30.7614C41.2834 31.0265 41.0253 31.3958 40.8501 31.8693C40.675 32.3428 40.5874 32.8897 40.5874 33.5099C40.5874 34.1397 40.675 34.6842 40.8501 35.1435C41.0301 35.598 41.2881 35.9508 41.6243 36.2017C41.9652 36.4479 42.3842 36.571 42.8814 36.571ZM50.5589 39V28.0909H53.5845V39H50.5589ZM52.0788 26.6847C51.629 26.6847 51.2431 26.5355 50.9212 26.2372C50.6039 25.9342 50.4453 25.572 50.4453 25.1506C50.4453 24.7339 50.6039 24.3764 50.9212 24.0781C51.2431 23.7751 51.629 23.6236 52.0788 23.6236C52.5286 23.6236 52.9122 23.7751 53.2294 24.0781C53.5514 24.3764 53.7124 24.7339 53.7124 25.1506C53.7124 25.572 53.5514 25.9342 53.2294 26.2372C52.9122 26.5355 52.5286 26.6847 52.0788 26.6847ZM59.0337 32.6932V39H56.0082V28.0909H58.8917V30.0156H59.0195C59.261 29.3812 59.6658 28.8793 60.234 28.5099C60.8022 28.1359 61.4911 27.9489 62.3008 27.9489C63.0584 27.9489 63.7189 28.1146 64.2823 28.446C64.8458 28.7775 65.2837 29.2509 65.5962 29.8665C65.9087 30.4773 66.065 31.2064 66.065 32.054V39H63.0394V32.5938C63.0442 31.9261 62.8737 31.4053 62.5281 31.0312C62.1824 30.6525 61.7066 30.4631 61.1005 30.4631C60.6933 30.4631 60.3335 30.5507 60.021 30.7259C59.7132 30.901 59.4717 31.1567 59.2965 31.4929C59.1261 31.8243 59.0385 32.2244 59.0337 32.6932ZM82.7802 29.1562C82.6808 28.8106 82.5411 28.5052 82.3612 28.2401C82.1812 27.9702 81.9611 27.7429 81.7006 27.5582C81.445 27.3688 81.1514 27.2244 80.82 27.125C80.4933 27.0256 80.131 26.9759 79.7333 26.9759C78.9899 26.9759 78.3365 27.1605 77.7731 27.5298C77.2144 27.8991 76.7788 28.4366 76.4663 29.142C76.1538 29.8428 75.9975 30.6998 75.9975 31.7131C75.9975 32.7263 76.1514 33.5881 76.4592 34.2983C76.7669 35.0085 77.2025 35.5507 77.766 35.9247C78.3294 36.294 78.9947 36.4787 79.7617 36.4787C80.4577 36.4787 81.052 36.3556 81.5444 36.1094C82.0415 35.8584 82.4203 35.5057 82.6808 35.0511C82.9459 34.5966 83.0785 34.0592 83.0785 33.4389L83.7035 33.5312H79.9535V31.2159H86.0401V33.0483C86.0401 34.3267 85.7702 35.4252 85.2305 36.3438C84.6907 37.2576 83.9473 37.9631 83.0004 38.4602C82.0534 38.9527 80.9691 39.1989 79.7475 39.1989C78.3839 39.1989 77.186 38.8982 76.1538 38.2969C75.1216 37.6908 74.3166 36.8314 73.739 35.7188C73.1661 34.6013 72.8796 33.2756 72.8796 31.7415C72.8796 30.5625 73.0501 29.5114 73.391 28.5881C73.7366 27.66 74.2196 26.8741 74.8398 26.2301C75.4601 25.5862 76.1822 25.0961 77.006 24.7599C77.8299 24.4238 78.7224 24.2557 79.6836 24.2557C80.5075 24.2557 81.2745 24.3764 81.9847 24.6179C82.695 24.8546 83.3247 25.1908 83.8739 25.6264C84.4279 26.062 84.8801 26.5805 85.2305 27.1818C85.5808 27.7784 85.8058 28.4366 85.9052 29.1562H82.7802ZM91.4041 39.206C90.7081 39.206 90.0878 39.0852 89.5433 38.8438C88.9988 38.5975 88.5679 38.2353 88.2507 37.7571C87.9382 37.2741 87.782 36.6728 87.782 35.9531C87.782 35.3471 87.8932 34.8381 88.1158 34.4261C88.3383 34.0142 88.6413 33.6828 89.0249 33.4318C89.4084 33.1809 89.844 32.9915 90.3317 32.8636C90.8241 32.7358 91.3402 32.6458 91.88 32.5938C92.5144 32.5275 93.0258 32.4659 93.4141 32.4091C93.8023 32.3475 94.084 32.2576 94.2592 32.1392C94.4344 32.0208 94.522 31.8456 94.522 31.6136V31.571C94.522 31.1212 94.38 30.7732 94.0959 30.527C93.8165 30.2808 93.4188 30.1577 92.9027 30.1577C92.3582 30.1577 91.925 30.2784 91.603 30.5199C91.281 30.7566 91.0679 31.0549 90.9638 31.4148L88.1655 31.1875C88.3075 30.5246 88.5869 29.9517 89.0036 29.4688C89.4202 28.9811 89.9576 28.607 90.6158 28.3466C91.2786 28.0814 92.0457 27.9489 92.9169 27.9489C93.523 27.9489 94.103 28.0199 94.657 28.1619C95.2157 28.304 95.7105 28.5241 96.1413 28.8224C96.5769 29.1207 96.9202 29.5043 97.1712 29.973C97.4221 30.437 97.5476 30.9934 97.5476 31.642V39H94.6783V37.4872H94.593C94.4179 37.8281 94.1835 38.1288 93.8899 38.3892C93.5964 38.6449 93.2436 38.8461 92.8317 38.9929C92.4197 39.1349 91.9439 39.206 91.4041 39.206ZM92.2706 37.1179C92.7157 37.1179 93.1087 37.0303 93.4496 36.8551C93.7905 36.6752 94.058 36.4337 94.2521 36.1307C94.4463 35.8277 94.5433 35.4844 94.5433 35.1009V33.9432C94.4486 34.0047 94.3184 34.0616 94.1527 34.1136C93.9917 34.161 93.8094 34.206 93.6058 34.2486C93.4022 34.2865 93.1986 34.322 92.995 34.3551C92.7914 34.3835 92.6068 34.4096 92.4411 34.4332C92.0859 34.4853 91.7758 34.5682 91.5107 34.6818C91.2455 34.7955 91.0395 34.9493 90.8928 35.1435C90.746 35.3329 90.6726 35.5696 90.6726 35.8537C90.6726 36.2656 90.8217 36.5805 91.12 36.7983C91.4231 37.0114 91.8066 37.1179 92.2706 37.1179ZM99.8949 39V28.0909H102.778V30.0156H102.906C103.134 29.3764 103.512 28.8722 104.043 28.5028C104.573 28.1335 105.207 27.9489 105.946 27.9489C106.694 27.9489 107.331 28.1359 107.857 28.5099C108.382 28.8793 108.732 29.3812 108.908 30.0156H109.021C109.244 29.3906 109.646 28.8911 110.229 28.517C110.816 28.1383 111.509 27.9489 112.31 27.9489C113.328 27.9489 114.154 28.2732 114.788 28.9219C115.428 29.5658 115.747 30.4796 115.747 31.6634V39H112.729V32.2599C112.729 31.6539 112.568 31.1993 112.246 30.8963C111.924 30.5933 111.521 30.4418 111.038 30.4418C110.489 30.4418 110.061 30.617 109.753 30.9673C109.445 31.313 109.291 31.7699 109.291 32.3381V39H106.358V32.196C106.358 31.661 106.204 31.2348 105.896 30.9176C105.593 30.6004 105.193 30.4418 104.696 30.4418C104.36 30.4418 104.057 30.527 103.787 30.6974C103.522 30.8632 103.311 31.0975 103.155 31.4006C102.999 31.6989 102.92 32.0492 102.92 32.4517V39H99.8949ZM123.109 39.2131C121.987 39.2131 121.021 38.9858 120.211 38.5312C119.406 38.072 118.786 37.4233 118.35 36.5852C117.915 35.7424 117.697 34.7457 117.697 33.5952C117.697 32.473 117.915 31.4882 118.35 30.6406C118.786 29.7931 119.399 29.1326 120.19 28.6591C120.985 28.1856 121.918 27.9489 122.988 27.9489C123.708 27.9489 124.378 28.0649 124.998 28.2969C125.623 28.5241 126.167 28.8674 126.631 29.3267C127.1 29.786 127.465 30.3636 127.725 31.0597C127.986 31.7509 128.116 32.5606 128.116 33.4886V34.3196H118.904V32.4446H125.268C125.268 32.009 125.173 31.6231 124.984 31.2869C124.794 30.9508 124.531 30.688 124.195 30.4986C123.864 30.3045 123.478 30.2074 123.038 30.2074C122.578 30.2074 122.171 30.3139 121.816 30.527C121.466 30.7353 121.191 31.017 120.992 31.3722C120.793 31.7225 120.692 32.1132 120.687 32.544V34.3267C120.687 34.8665 120.786 35.3329 120.985 35.7259C121.189 36.1188 121.475 36.4219 121.844 36.6349C122.214 36.848 122.652 36.9545 123.158 36.9545C123.495 36.9545 123.802 36.9072 124.082 36.8125C124.361 36.7178 124.6 36.5758 124.799 36.3864C124.998 36.197 125.149 35.965 125.254 35.6903L128.052 35.875C127.91 36.5473 127.619 37.1345 127.178 37.6364C126.743 38.1335 126.179 38.5218 125.488 38.8011C124.801 39.0758 124.008 39.2131 123.109 39.2131Z" fill="url(#paint0_linear_122_816)"/>
<defs>
<linearGradient id="paint0_linear_122_816" x1="64" y1="6" x2="64" y2="39" gradientUnits="userSpaceOnUse">
<stop stop-color="#FF4D00"/>
<stop offset="1" stop-color="white"/>
</linearGradient>
</defs>
</svg>
